<?xml version="1.0" encoding="utf-8"?>
<!-- Generator: Adobe Illustrator 16.0.0, SVG Export Plug-In . SVG Version: 6.00 Build 0)  -->
<!DOCTYPE svg PUBLIC "-//W3C//DTD SVG 1.1//EN" "http://www.w3.org/Graphics/SVG/1.1/DTD/svg11.dtd">
<svg version="1.1" xmlns="http://www.w3.org/2000/svg" xmlns:xlink="http://www.w3.org/1999/xlink" x="0px" y="0px" width="512px"
	 height="512px" viewBox="0 0 512 512" enable-background="new 0 0 512 512" xml:space="preserve">
<g id="Layer_2" display="none">
	<g display="inline">
		<path fill-rule="evenodd" clip-rule="evenodd" fill="#C19B76" d="M96.894,334.438c0-80.669,0-161.338,0.004-242.006
			c0.002-10.752,0.95-11.719,11.706-11.719c123.837,0.006,247.672,0.017,371.505,0.043c10.826,0.004,11.585,0.801,11.593,11.768
			c0.004,161.097,0.004,246.024,0,407.124c0,11.853-0.584,12.392-12.37,12.392c-123.364,0-246.729,0.008-370.09,0.008
			c-11.68,0-12.344-0.673-12.344-12.478C96.894,419.135,96.894,414.873,96.894,334.438z M110.216,93.978
			c0,160.647,0,244.496,0,404.673c122.954,0,245.454,0,368.227,0c0-160.5,0-244.34,0-404.673
			C355.559,93.978,233.213,93.978,110.216,93.978z"/>
		<path fill-rule="evenodd" clip-rule="evenodd" fill="#C19B76" d="M446.6,247.821c-78.563,0-156.265,0-234.596,0
			c-0.574,14.901-1.158,29.428-1.688,43.955c-0.221,6.126-0.295,12.259-0.485,18.388c-0.277,8.882-1.631,10.437-10.32,10.488
			c-19.552,0.126-39.105,0.041-59.229,0.041c0,75.993,0,70.608,0,145.627c101.979,0,203.708,0,306.319,0
			c0-13.389-0.019-26.518,0.012-39.649c0.007-2.347-0.573-5.192,0.524-6.914c1.417-2.228,4.336-4.999,6.448-4.868
			c2.061,0.126,5.557,3.566,5.608,5.615c0.432,17.674,0.443,35.37-0.07,53.043c-0.063,2.068-3.905,4.247-6.308,5.929
			c-0.952,0.666-2.756,0.13-4.169,0.13c-103.059,0.008-206.118,0.012-309.176,0.008c-12.111,0-12.695-0.633-12.693-12.884
			c0.009-75.228,0.058-70.481-0.075-145.713c-0.009-5.363,1.503-9.261,5.361-13.065c23.159-22.854,45.982-46.047,69.229-68.812
			c2.676-2.622,7.28-4.626,10.998-4.638c78.999-0.262,158.005-0.207,237.011-0.179c8.707,0.004,10.19,1.529,10.194,10.423
			c0.052,76.881,0.074,73.79,0.089,150.669c0,1.647,0.477,3.7-0.313,4.854c-1.454,2.112-3.771,5.222-5.571,5.125
			c-2.354-0.13-5.185-2.57-6.627-4.779c-1.101-1.688-0.446-4.578-0.446-6.929c-0.015-72.155-0.022-64.33-0.026-136.486
			C446.6,254.205,446.6,251.211,446.6,247.821z M152.901,307.612c13.928,0,28.771,0,44.571,0c0-15.878,0-30.766,0-44.983
			C182.777,277.457,167.633,292.742,152.901,307.612z"/>
		<path fill-rule="evenodd" clip-rule="evenodd" fill="#C19B76" d="M205.044,224.446c-23.338-0.009-46.676,0.021-70.012-0.022
			c-8.493-0.015-9.943-1.452-9.954-9.848c-0.037-32.06-0.041-64.119-0.004-96.18c0.009-8.097,1.841-9.963,9.997-9.969
			c46.912-0.042,93.823-0.042,140.733,0c8.521,0.006,10.402,1.912,10.41,10.397c0.037,31.827,0.037,63.653,0,95.475
			c-0.016,8.718-1.392,10.1-10.451,10.127C252.191,224.498,228.618,224.451,205.044,224.446z M138.216,210.969
			c45.153,0,89.786,0,134.591,0c0-29.872,0-59.233,0-88.845c-45.067,0-89.695,0-134.591,0
			C138.216,151.891,138.216,181.071,138.216,210.969z"/>
		<path fill-rule="evenodd" clip-rule="evenodd" fill="#C19B76" d="M379.432,224.492c-23.326,0.007-46.649,0.034-69.973-0.005
			c-9.588-0.019-10.777-1.138-10.793-10.501c-0.044-31.81-0.037-63.614,0.019-95.42c0.012-8.554,1.685-10.133,10.529-10.135
			c46.649-0.03,93.299-0.03,139.948,0.002c8.773,0.007,10.377,1.622,10.38,10.272c0.016,31.568,0.012,63.141-0.029,94.71
			c-0.011,10.15-0.907,11.046-10.815,11.059C425.608,224.507,402.521,224.487,379.432,224.492z M446.269,122.061
			c-45.15,0-89.554,0-134.132,0c0,30,0,59.503,0,89.012c44.973,0,89.387,0,134.132,0
			C446.269,181.313,446.269,151.969,446.269,122.061z"/>
		<g>
			<g>
				<path fill="#C19B76" d="M42.563,131.905c-3.555,0-6.438-2.882-6.438-6.438v-9.657c0-3.555,2.882-6.438,6.438-6.438
					c3.556,0,6.438,2.882,6.438,6.438v9.657C49,129.023,46.118,131.905,42.563,131.905z"/>
			</g>
			<g>
				<path fill="#C19B76" d="M42.563,207.937c-3.555,0-6.438-2.882-6.438-6.438V182.49c0-3.555,2.882-6.438,6.438-6.438
					c3.556,0,6.438,2.883,6.438,6.438v19.009C49,205.054,46.118,207.937,42.563,207.937z M42.563,169.921
					c-3.555,0-6.438-2.882-6.438-6.438v-19.008c0-3.556,2.882-6.438,6.438-6.438c3.556,0,6.438,2.882,6.438,6.438v19.008
					C49,167.039,46.118,169.921,42.563,169.921z"/>
			</g>
			<path fill="#C19B76" d="M42.563,474.052c-3.555,0-6.438-2.886-6.438-6.441v-19.005c0-3.556,2.882-6.441,6.438-6.441
				c3.556,0,6.438,2.886,6.438,6.441v19.005C49,471.166,46.118,474.052,42.563,474.052z"/>
			<path fill="#C19B76" d="M42.563,436.034c-3.555,0-6.438-2.886-6.438-6.441v-19.005c0-3.556,2.882-6.441,6.438-6.441
				c3.556,0,6.438,2.886,6.438,6.441v19.005C49,433.148,46.118,436.034,42.563,436.034z"/>
			<path fill="#C19B76" d="M42.563,398.018c-3.555,0-6.438-2.887-6.438-6.441V372.57c0-3.555,2.882-6.434,6.438-6.434
				c3.556,0,6.438,2.879,6.438,6.434v19.006C49,395.131,46.118,398.018,42.563,398.018z"/>
			<path fill="#C19B76" d="M42.563,360c-3.555,0-6.438-2.879-6.438-6.435v-19.012c0-3.556,2.882-6.435,6.438-6.435
				c3.556,0,6.438,2.879,6.438,6.435v19.012C49,357.121,46.118,360,42.563,360z"/>
			<path fill="#C19B76" d="M42.563,321.982c-3.555,0-6.438-2.878-6.438-6.434V296.54c0-3.556,2.882-6.438,6.438-6.438
				c3.556,0,6.438,2.883,6.438,6.438v19.009C49,319.104,46.118,321.982,42.563,321.982z"/>
			<path fill="#C19B76" d="M42.563,283.969c-3.555,0-6.438-2.882-6.438-6.438v-19.009c0-3.555,2.882-6.438,6.438-6.438
				c3.556,0,6.438,2.882,6.438,6.438v19.009C49,281.087,46.118,283.969,42.563,283.969z"/>
			<path fill="#C19B76" d="M42.563,245.954c-3.555,0-6.438-2.882-6.438-6.438v-19.008c0-3.556,2.882-6.438,6.438-6.438
				c3.556,0,6.438,2.882,6.438,6.438v19.008C49,243.071,46.118,245.954,42.563,245.954z"/>
			<g>
				<path fill="#C19B76" d="M42.563,486.393c-3.555,0-6.438-2.887-6.438-6.442v-9.654c0-3.556,2.882-6.435,6.438-6.435
					c3.556,0,6.438,2.879,6.438,6.435v9.654C49,483.506,46.118,486.393,42.563,486.393z"/>
			</g>
			<path fill="#C19B76" d="M60.34,112.518H24.873c-3.556,0-6.438-2.882-6.438-6.438s2.882-6.438,6.438-6.438H60.34
				c3.556,0,6.438,2.882,6.438,6.438S63.896,112.518,60.34,112.518z"/>
			<path fill="#C19B76" d="M60.34,493.116H24.873c-3.556,0-6.438-2.879-6.438-6.434c0-3.556,2.882-6.442,6.438-6.442H60.34
				c3.556,0,6.438,2.887,6.438,6.442C66.778,490.237,63.896,493.116,60.34,493.116z"/>
		</g>
		<g>
			<g>
				<path fill="#C19B76" d="M479.474,32.304h-8.763c-3.229,0-5.843-2.616-5.843-5.843c0-3.226,2.614-5.843,5.843-5.843h8.763
					c3.229,0,5.843,2.617,5.843,5.843C485.316,29.688,482.702,32.304,479.474,32.304z"/>
			</g>
			<g>
				<path fill="#C19B76" d="M455.124,32.304h-15.587c-3.229,0-5.843-2.616-5.843-5.843c0-3.226,2.614-5.843,5.843-5.843h15.587
					c3.229,0,5.843,2.617,5.843,5.843C460.967,29.688,458.353,32.304,455.124,32.304z M423.95,32.304h-15.583
					c-3.229,0-5.843-2.616-5.843-5.843c0-3.226,2.614-5.843,5.843-5.843h15.583c3.229,0,5.843,2.617,5.843,5.843
					C429.793,29.688,427.179,32.304,423.95,32.304z"/>
			</g>
			<g>
				<path fill="#C19B76" d="M392.779,32.304h-15.587c-3.228,0-5.843-2.616-5.843-5.843c0-3.226,2.615-5.843,5.843-5.843h15.587
					c3.229,0,5.843,2.617,5.843,5.843C398.622,29.688,396.008,32.304,392.779,32.304z M361.609,32.304h-15.591
					c-3.225,0-5.839-2.616-5.839-5.843c0-3.226,2.614-5.843,5.839-5.843h15.591c3.225,0,5.839,2.617,5.839,5.843
					C367.448,29.688,364.834,32.304,361.609,32.304z M330.436,32.304h-15.587c-3.225,0-5.843-2.616-5.843-5.843
					c0-3.226,2.618-5.843,5.843-5.843h15.587c3.229,0,5.843,2.617,5.843,5.843C336.278,29.688,333.664,32.304,330.436,32.304z
					 M299.262,32.304h-15.584c-3.228,0-5.847-2.616-5.847-5.843c0-3.226,2.619-5.843,5.847-5.843h15.584
					c3.228,0,5.846,2.617,5.846,5.843C305.107,29.688,302.489,32.304,299.262,32.304z M268.091,32.304h-15.587
					c-3.226,0-5.843-2.616-5.843-5.843c0-3.226,2.617-5.843,5.843-5.843h15.587c3.225,0,5.843,2.617,5.843,5.843
					C273.934,29.688,271.315,32.304,268.091,32.304z M236.919,32.304h-15.587c-3.227,0-5.843-2.616-5.843-5.843
					c0-3.226,2.616-5.843,5.843-5.843h15.587c3.226,0,5.843,2.617,5.843,5.843C242.762,29.688,240.145,32.304,236.919,32.304z
					 M205.747,32.304H190.16c-3.227,0-5.843-2.616-5.843-5.843c0-3.226,2.616-5.843,5.843-5.843h15.587
					c3.227,0,5.843,2.617,5.843,5.843C211.589,29.688,208.973,32.304,205.747,32.304z M174.574,32.304h-15.587
					c-3.226,0-5.843-2.616-5.843-5.843c0-3.226,2.617-5.843,5.843-5.843h15.587c3.227,0,5.843,2.617,5.843,5.843
					C180.417,29.688,177.801,32.304,174.574,32.304z M143.402,32.304h-15.587c-3.227,0-5.843-2.616-5.843-5.843
					c0-3.226,2.616-5.843,5.843-5.843h15.587c3.227,0,5.843,2.617,5.843,5.843C149.245,29.688,146.629,32.304,143.402,32.304z"/>
			</g>
			<g>
				<path fill="#C19B76" d="M112.23,32.304h-8.764c-3.227,0-5.843-2.616-5.843-5.843c0-3.226,2.616-5.843,5.843-5.843h8.764
					c3.227,0,5.843,2.617,5.843,5.843C118.073,29.688,115.457,32.304,112.23,32.304z"/>
			</g>
		</g>
		<path fill="#C19B76" d="M487.128,50.681c-3.556,0-6.438-2.882-6.438-6.438V8.771c0-3.556,2.883-6.438,6.438-6.438
			c3.555,0,6.438,2.882,6.438,6.438v35.472C493.565,47.798,490.683,50.681,487.128,50.681z"/>
		<path fill="#C19B76" d="M96.736,50.681c-3.556,0-6.438-2.882-6.438-6.438V8.771c0-3.556,2.882-6.438,6.438-6.438
			c3.555,0,6.438,2.882,6.438,6.438v35.472C103.174,47.798,100.292,50.681,96.736,50.681z"/>
	</g>
</g>
<g id="Layer_1">
	<g>
		<path fill-rule="evenodd" clip-rule="evenodd" fill="#C09A76" d="M512.508,426.494c-2.195,3.714-5.398,4.952-9.729,4.949
			c-154.277-0.131-355.555-0.067-409.833-0.07c-7.629-0.002-9.825-2.196-9.825-9.825c-0.004-104.279,0.017-307.541-0.072-411.819
			C83.045,5.398,84.285,2.195,88,0c109.17,0,315.34,0,424.508,0c0,10.511,0,20.985,0,31.461c-1.68,1.436-3.145,3.396-5.088,4.203
			c-4.139,1.72-8.277-1.27-8.768-6.071c-0.258-2.529-0.145-5.101-0.168-7.652c-0.021-2.402-0.004-4.806-0.004-7.559
			c-67.035,0-233.75,0-300.771,0c0,52.812,0,120.043,0,173.332c1.729,0,3.292,0,4.855,0c38.72,0,77.441-0.001,116.16,0.008
			c1.611,0,3.24-0.033,4.83,0.18c3.549,0.474,5.836,3.045,5.969,6.501c0.137,3.566-2.184,6.502-5.793,7.102
			c-1.445,0.239-2.947,0.172-4.424,0.172c-38.854,0.008-77.709,0.006-116.563,0.006c-1.596,0-3.189,0-5.339,0
			c0,1.743,0,3.178,0,4.611c0,12.772,0.005,25.544-0.009,38.318c-0.002,1.475,0.011,2.968-0.201,4.423
			c-0.54,3.702-2.79,5.716-6.494,5.947c-3.554,0.225-6.516-2.153-7.121-5.753c-0.265-1.575-0.186-3.214-0.186-4.826
			c-0.009-70.181-0.008-154.853-0.008-225.033c-0.001-1.597-0.001-3.193-0.001-5.064c-29.783,0-56.279,0-86.037,0
			c0,101.265,0,301.292,0,402.719c29.459,0,55.937,0,85.819,0c0.068-1.178,0.206-2.46,0.209-3.743
			c0.019-9.143,0-18.285,0.014-27.427c0.008-6.167,2.362-9.381,6.882-9.457c4.702-0.08,7.109,3.126,7.125,9.592
			c0.024,8.873,0.008,17.747,0.008,26.62c0,1.438,0,2.873,0,4.55c67.152,0,233.771,0,300.736,0c0-43.531,0-171.494,0-215.477
			c-5.926,0-71.789,0.001-77.652,0c-2.959,0-5.916,0.051-8.873-0.015c-4.965-0.108-8.191-2.956-8.121-7.072
			c0.068-3.983,3.143-6.772,7.91-6.842c7.393-0.108,74.787-0.035,82.182-0.039c1.443,0,2.885,0,4.895,0c0-2.003,0-3.57,0-5.136
			c0-36.839,0-88.168,0-125.007c0-0.94,0.021-1.883,0-2.823c-0.096-3.892,0.719-7.329,4.941-8.684
			c3.666-1.175,6.182,0.227,9.086,4.756C512.508,143.05,512.508,334.264,512.508,426.494z"/>
		<path fill-rule="evenodd" clip-rule="evenodd" fill="#C09A76" d="M125.106,512c-12.145-7.617-24.292-15.235-36.436-22.854
			c-7.508-4.711-7.567-10.045-0.126-14.695c11.16-6.974,22.322-13.945,33.522-20.854c6.972-4.301,12.241-1.433,12.392,6.715
			c0.086,4.667,0.015,9.337,0.015,14.231c76.632,0,249.777,0,326.617,0c0-3.454-0.008-6.876,0.002-10.299
			c0.006-1.882-0.107-3.776,0.08-5.642c0.611-6.111,5.783-8.95,11.043-5.762c12.285,7.449,24.449,15.102,36.578,22.803
			c1.498,0.954,2.49,2.708,3.715,4.09c0,1.345,0,2.689,0,4.034c-1.896,1.813-3.561,3.984-5.727,5.378
			c-12.006,7.723-24.135,15.257-36.221,22.854c-1.611,0-3.227,0-4.84,0c-3.738-2.452-4.914-5.969-4.682-10.316
			c0.229-4.22,0.051-8.462,0.051-12.71c-76.852,0-250.012,0-326.614,0c0,4.383-0.168,8.531,0.046,12.66
			c0.226,4.314-0.87,7.872-4.576,10.366C128.333,512,126.72,512,125.106,512z M119.99,492.027c0-7.076,0-13.595,0-20.565
			c-5.646,3.51-10.843,6.741-16.556,10.293C109.167,485.312,114.428,488.576,119.99,492.027z M492.17,481.746
			c-5.891-3.648-11.129-6.891-16.586-10.271c0,7.153,0,13.602,0,20.563C481.209,488.547,486.391,485.333,492.17,481.746z"/>
		<path fill-rule="evenodd" clip-rule="evenodd" fill="#C09A76" d="M2.493,374.546c2.493-3.698,6.046-4.8,10.357-4.576
			c4.127,0.216,8.273,0.047,12.922,0.047c0-2.125,0-3.828,0-5.532c0-57.373-0.001-203.728,0.005-261.101
			c0.001-1.61-0.067-3.242,0.158-4.827c0.513-3.612,3.417-5.987,6.991-5.904c3.384,0.08,6.125,2.427,6.619,5.871
			c0.228,1.584,0.161,3.216,0.161,4.826c0.007,57.372,0.006,203.729,0.006,261.101c0,1.706,0,3.412,0,5.566
			c4.891,0,9.294,0.016,13.697-0.005c3.465-0.016,6.776,0.276,8.69,3.797c1.824,3.359,0.371,6.167-1.404,9
			c-6.99,11.146-13.908,22.335-20.897,33.481c-4.38,6.983-9.778,6.915-14.222-0.148c-7.707-12.244-15.391-24.503-23.084-36.755
			C2.493,377.772,2.493,376.16,2.493,374.546z M43.114,384.369c-7.16,0-13.632,0-20.727,0c3.527,5.689,6.793,10.954,10.349,16.69
			C36.292,395.343,39.523,390.146,43.114,384.369z"/>
		<path fill-rule="evenodd" clip-rule="evenodd" fill="#C09A76" d="M34.759,0c1.816,1.903,3.997,3.573,5.389,5.749
			c7.005,10.96,13.779,22.069,20.694,33.088c1.802,2.872,3.058,5.729,1.126,8.996c-1.812,3.063-4.784,3.606-8.011,3.59
			c-4.553-0.022-9.104-0.005-14.245-0.005c0,3.459,0.002,6.629,0,9.799c-0.005,6.309,0.075,12.619-0.042,18.926
			c-0.085,4.594-3.148,7.742-7.102,7.617c-3.859-0.12-6.688-3.12-6.75-7.566c-0.113-7.918-0.042-15.838-0.047-23.757
			c-0.001-1.454,0-2.909,0-5.019c-4.526,0-8.766-0.178-12.982,0.05c-4.343,0.233-7.849-0.95-10.297-4.681c0-1.613,0-3.227,0-4.84
			c7.597-12.084,15.13-24.212,22.853-36.216C26.74,3.564,28.913,1.897,30.726,0C32.07,0,33.416,0,34.759,0z M43.162,37.104
			c-3.647-5.861-6.893-11.075-10.43-16.758c-3.647,5.892-6.886,11.123-10.373,16.758C29.582,37.104,35.976,37.104,43.162,37.104z"/>
	</g>
</g>
</svg>
